<svg xmlns="http://www.w3.org/2000/svg" x="0px" y="0px" width="100" height="100" viewBox="0,0,256,256">
<g transform="translate(38.4,38.4) scale(0.7,0.7)"><g fill="none" fill-rule="nonzero" stroke="#808080" stroke-width="8" stroke-linecap="butt" stroke-linejoin="miter" stroke-miterlimit="10" stroke-dasharray="" stroke-dashoffset="0" font-family="none" font-weight="none" font-size="none" text-anchor="none" style="mix-blend-mode: normal"><path d="M-14.08963,305.61204c-19.61848,0 -35.52241,-15.90392 -35.52241,-35.52241v-284.17926c0,-19.61848 15.90392,-35.52241 35.52241,-35.52241h284.17926c19.61848,0 35.52241,15.90392 35.52241,35.52241v284.17926c0,19.61848 -15.90392,35.52241 -35.52241,35.52241z" id="shape"></path></g><g fill-opacity="0.85882" fill="#6a6a6a" fill-rule="nonzero" stroke="none" stroke-width="1" stroke-linecap="butt" stroke-linejoin="miter" stroke-miterlimit="10" stroke-dasharray="" stroke-dashoffset="0" font-family="none" font-weight="none" font-size="none" text-anchor="none" style="mix-blend-mode: normal"><g transform="scale(8,8)"><rect x="5" y="2" width="4" height="28"></rect><path d="M19,2h-8v4h8c2.206,0 4,1.794 4,4v12c0,2.206 -1.794,4 -4,4h-8v4h8c4.411,0 8,-3.589 8,-8v-12c0,-4.411 -3.589,-8 -8,-8z"></path></g></g></g>
</svg>